<?xml version="1.0" standalone="no"?>
<!DOCTYPE svg PUBLIC "-//W3C//DTD SVG 20010904//EN"
 "http://www.w3.org/TR/2001/REC-SVG-20010904/DTD/svg10.dtd">
<svg version="1.0" xmlns="http://www.w3.org/2000/svg"
 width="652.000000pt" height="264.000000pt" viewBox="0 0 652.000000 264.000000"
 preserveAspectRatio="xMidYMid meet">
<metadata>
Created by potrace 1.15, written by Peter Selinger 2001-2017
</metadata>
<g transform="translate(0.000000,264.000000) scale(0.100000,-0.100000)"
fill="#000000" stroke="none">
<path d="M2892 2364 c76 -82 166 -114 333 -118 113 -4 115 -3 25 3 -107 8
-134 19 -211 87 -59 52 -85 64 -140 64 l-41 0 34 -36z"/>
<path d="M4338 2231 c3 -24 -15 -102 -34 -147 -3 -6 8 -14 25 -17 16 -4 59
-26 94 -51 114 -77 274 -125 437 -130 l105 -4 -90 7 c-139 11 -226 42 -328
117 -55 40 -53 37 -62 128 -6 58 -12 74 -35 98 -23 22 -38 28 -72 28 -43 0
-44 -1 -40 -29z"/>
<path d="M3746 2211 c30 -18 54 -64 54 -101 0 -9 11 -27 24 -39 29 -27 50
-101 41 -145 -4 -17 -20 -74 -36 -126 -16 -52 -32 -119 -36 -149 l-6 -54 32 6
c18 4 53 16 77 27 55 24 66 47 100 219 l25 129 -25 27 c-14 15 -41 60 -60 100
-30 63 -40 75 -78 93 -24 11 -65 23 -93 27 l-50 6 31 -20z"/>
<path d="M910 2174 c0 -2 18 -11 40 -20 51 -21 114 -91 134 -151 9 -27 16 -80
16 -127 l0 -80 33 31 c17 17 57 49 88 70 52 36 55 40 36 49 -11 5 -31 29 -44
54 -30 56 -77 106 -123 130 -32 16 -180 52 -180 44z"/>
<path d="M1881 2108 c65 -54 39 -113 -61 -132 -150 -30 -406 -158 -508 -254
-66 -62 -34 -68 168 -34 69 11 149 23 179 27 62 6 81 15 32 15 -50 0 -36 29
29 62 72 36 311 118 345 118 13 0 16 8 13 38 -3 35 -5 38 -50 49 -26 6 -52 14
-58 18 -19 12 -11 63 12 79 22 16 22 16 -14 16 -19 0 -51 3 -69 6 -29 5 -32 4
-18 -8z"/>
<path d="M2227 2075 c30 -30 33 -38 33 -91 0 -33 -5 -90 -11 -129 -17 -118
-15 -364 4 -407 9 -21 20 -38 25 -38 17 0 90 88 116 139 30 59 31 61 11 61
-17 0 -18 17 -9 109 6 50 10 61 25 61 11 0 19 2 19 4 0 2 -9 48 -20 101 -11
53 -20 109 -20 124 -1 41 -63 74 -176 94 l-31 6 34 -34z"/>
<path d="M2612 2040 c13 -26 23 -75 28 -138 5 -53 22 -158 39 -232 17 -74 36
-161 42 -193 l11 -58 22 20 c12 11 37 27 57 35 33 14 37 20 43 63 5 41 3 50
-14 63 -20 15 -24 38 -61 300 -6 41 -18 91 -28 110 -20 41 -71 70 -122 70
l-36 0 19 -40z"/>
<path d="M5866 2057 c50 -24 100 -73 113 -115 8 -24 12 -71 10 -118 -3 -65
-10 -92 -36 -144 -48 -98 -106 -155 -275 -275 -84 -60 -155 -110 -157 -112
-14 -10 56 -62 135 -99 73 -35 102 -44 145 -44 39 0 50 3 39 10 -8 5 -25 10
-37 10 -30 0 -76 41 -68 61 3 9 56 51 116 95 241 170 320 313 284 515 -24 141
-92 199 -260 224 l-40 6 31 -14z"/>
<path d="M3040 2055 c0 -3 8 -17 17 -32 20 -30 23 -120 9 -320 -7 -101 -6
-133 3 -133 17 0 67 27 134 72 53 36 57 41 44 56 -10 12 -16 53 -20 129 -5 93
-4 113 9 124 15 12 187 15 226 3 13 -4 21 3 28 22 13 34 -9 61 -54 68 -48 7
-396 17 -396 11z"/>
<path d="M675 2010 c-22 -3 -62 -16 -88 -28 l-48 -21 20 -28 c34 -47 44 -153
31 -318 -12 -142 -7 -185 21 -185 13 0 86 46 138 88 41 33 42 36 22 43 -18 7
-21 16 -21 65 0 31 -5 97 -12 147 l-12 90 26 22 c32 28 98 41 127 25 29 -15
27 2 -5 40 -48 56 -109 75 -199 60z"/>
<path d="M5531 1920 c-25 -5 -65 -20 -90 -32 l-46 -23 3 -56 c3 -54 -9 -132
-47 -296 -19 -85 -19 -93 8 -93 18 0 141 61 184 92 25 18 27 22 14 30 -14 7
-15 24 -11 111 6 96 8 104 34 129 33 30 118 52 186 46 24 -2 44 0 44 5 0 22
-32 65 -57 76 -35 17 -163 23 -222 11z"/>
<path d="M4201 1853 c-5 -21 -15 -65 -21 -98 -10 -55 -8 -64 12 -106 l23 -46
60 4 c44 4 65 10 78 26 16 18 16 22 3 29 -29 16 -15 62 19 63 6 0 10 14 10 30
0 25 -8 35 -46 60 -43 28 -104 65 -121 73 -4 2 -11 -14 -17 -35z"/>
<path d="M5095 1742 l-90 -47 -120 1 c-66 1 -156 8 -200 17 -43 8 -85 13 -91
10 -16 -6 -44 -75 -44 -107 0 -40 23 -50 93 -41 34 5 78 9 98 9 28 1 35 5 35
21 -1 24 26 25 147 7 116 -18 243 -16 251 3 7 19 21 175 15 174 -2 -1 -44 -22
-94 -47z"/>
<path d="M3488 1638 c-54 -53 -98 -100 -98 -102 0 -5 56 -1 126 10 34 5 44 21
65 105 22 93 11 91 -93 -13z"/>
<path d="M992 1542 c-83 -128 -226 -229 -360 -255 l-63 -12 2 -156 c1 -235
-17 -261 -155 -222 -36 10 -5 -17 53 -46 77 -39 166 -62 197 -51 47 18 58 62
56 212 -3 162 -3 162 111 195 94 28 181 86 259 174 34 38 71 72 82 75 12 3 66
-6 121 -20 118 -28 188 -28 382 4 70 12 143 20 161 18 33 -4 34 -3 28 26 -3
17 -17 41 -32 54 -33 29 -107 29 -274 0 -85 -14 -170 -22 -265 -22 -151 -1
-194 8 -244 50 l-28 23 -31 -47z"/>
<path d="M4819 1557 c6 -6 11 -30 11 -53 0 -32 -7 -51 -27 -75 -43 -50 -80
-61 -186 -54 -56 4 -102 3 -119 -4 -46 -18 -116 -167 -90 -193 6 -6 36 -10 69
-9 73 3 221 28 175 30 -44 1 -52 26 -19 58 35 36 127 45 148 16 8 -11 29 -25
48 -31 29 -10 32 -10 21 3 -15 19 -11 24 43 50 23 11 52 36 65 55 40 58 21
173 -33 199 -30 15 -119 21 -106 8z"/>
<path d="M4124 1459 c-24 -26 -130 -571 -141 -724 l-5 -80 46 -56 c41 -50 46
-61 46 -105 0 -38 -9 -67 -36 -119 -62 -121 -100 -144 -176 -106 l-41 20 28
-29 c36 -37 133 -80 198 -87 68 -7 94 13 141 109 54 106 48 205 -17 289 -14
19 -27 45 -29 59 -5 43 13 154 29 178 17 27 44 27 147 -3 76 -21 105 -15 188
39 94 61 176 80 316 73 120 -5 162 -16 218 -54 49 -32 156 -73 198 -75 64 -2
113 53 146 163 22 72 44 99 79 99 45 -1 217 -116 321 -216 100 -95 173 -141
263 -163 79 -19 107 10 107 113 0 119 -44 247 -106 307 -29 28 -44 34 -92 39
l-58 5 32 -42 c53 -69 77 -146 72 -228 -6 -89 -21 -115 -67 -115 -45 0 -93 33
-164 114 -60 68 -183 155 -354 251 -136 76 -141 74 -187 -76 -38 -126 -107
-187 -180 -159 -44 16 -59 52 -54 129 3 56 9 78 36 120 38 62 39 71 8 71 -12
0 -36 4 -52 9 -16 5 -49 12 -74 15 l-45 7 30 -19 c42 -27 61 -52 68 -89 5 -26
1 -39 -20 -63 -37 -45 -98 -73 -142 -66 -120 19 -175 22 -249 14 -90 -8 -129
-24 -231 -88 -50 -31 -75 -40 -108 -40 -99 0 -106 65 -27 253 80 194 96 245
84 267 -6 11 -37 33 -70 49 -57 29 -59 29 -76 10z"/>
<path d="M2510 1428 c-34 -54 -135 -147 -185 -169 -91 -42 -183 -16 -226 63
l-25 48 -21 -43 c-73 -150 -287 -344 -451 -408 -45 -18 -77 -23 -157 -23 -91
0 -105 2 -155 28 -30 15 -70 42 -89 60 -25 23 -31 26 -22 9 41 -80 298 -195
436 -194 66 0 166 32 238 76 32 19 66 35 76 35 13 0 21 10 25 32 8 42 59 120
104 159 132 116 337 96 514 -52 26 -21 49 -39 52 -39 8 0 8 49 0 87 -5 25 -10
29 -30 25 -33 -6 -84 17 -84 38 0 24 32 50 63 50 15 0 27 6 27 13 0 19 -49
217 -58 232 -5 9 -15 1 -32 -27z"/>
<path d="M3235 1436 c-11 -8 -55 -28 -97 -46 -73 -31 -78 -35 -84 -69 -4 -20
-1 -81 6 -136 21 -166 22 -217 8 -260 -12 -36 -17 -41 -58 -49 -63 -12 -128 7
-140 40 -6 14 -10 80 -11 147 0 67 -3 140 -7 161 -6 34 -12 41 -41 48 -18 5
-35 7 -38 4 -3 -2 6 -67 18 -143 27 -162 31 -351 10 -401 -16 -38 -40 -46
-116 -40 -43 4 -52 2 -44 -8 17 -21 114 -62 176 -75 105 -22 136 1 151 110 5
35 15 67 23 72 8 6 32 7 54 4 124 -18 120 -18 151 8 27 24 29 29 29 104 0 43
-6 126 -14 185 -13 97 -13 111 1 141 18 38 69 67 116 67 16 0 60 -11 97 -25
37 -14 70 -24 72 -21 7 7 24 88 20 93 -3 2 -33 -1 -68 -7 -35 -5 -74 -10 -87
-10 -26 0 -65 38 -91 88 -15 29 -18 31 -36 18z"/>
<path d="M3820 1408 c-19 -5 -43 -17 -53 -25 -28 -26 -55 -138 -70 -291 -16
-152 -22 -169 -79 -198 -15 -8 -46 -14 -70 -14 l-43 -1 23 -19 c34 -28 129
-61 194 -67 54 -5 57 -4 62 18 15 63 95 490 101 538 5 40 4 56 -6 62 -16 10
-14 10 -59 -3z"/>
<path d="M1300 1283 c1 -23 41 -186 50 -203 22 -42 98 -62 170 -45 32 8 33 9
11 14 -36 9 -59 48 -75 124 -18 91 -43 117 -108 117 -26 0 -48 -3 -48 -7z"/>
<path d="M2271 983 c-40 -8 -65 -29 -95 -82 -36 -62 -85 -87 -147 -77 -36 6
-40 5 -30 -8 16 -20 106 -60 165 -75 73 -18 97 -8 165 69 85 95 136 103 199
31 16 -19 20 -20 13 -6 -16 35 -102 116 -138 131 -39 17 -97 24 -132 17z"/>
</g>
</svg>
